#!OML:ASF H:\Dans Jumps\Project 1\Capture day 1\Session 1\subject.ASF
:FULLY-SPECIFIED
:DEGREES
358
root 0.309548 17.2794 -6.76001 9.03831 1.42009 -0.891982
lowerback 5.19583 0.217353 -1.04562
upperback 5.71274 0.234695 1.40752
thorax 2.96687 0.0509249 2.03072
lowerneck -12.8524 -0.584086 -1.65157
upperneck 32.4266 -0.933477 1.64202
head 12.9747 -0.389957 0.791828
rclavicle -6.95746e-016 5.76476e-015
rhumerus -56.6569 -27.1131 -48.3125
rradius 18.9355
rwrist 48.2032
rhand -16.6966 -22.6773
rfingers 7.12502
rthumb 9.52809 -52.4419
lclavicle -6.95746e-016 5.76476e-015
lhumerus -43.5053 3.47159 74.3988
lradius 16.8908
lwrist 12.2872
lhand -30.5494 -9.06623
lfingers 7.12502
lthumb -3.848 20.8788
rfemur -25.0576 -3.92852 18.9893
rtibia 37.0555
rfoot -19.1505 -2.39289
rtoes 6.02694
lfemur -24.5169 5.24553 -19.4368
ltibia 34.1597
lfoot -15.9242 7.89322
ltoes 2.00821
359
root 0.306453 17.2811 -6.75186 9.0371 1.36703 -0.895113
lowerback 5.16761 0.213296 -1.04806
upperback 5.70575 0.229548 1.39496
thorax 2.97556 0.0484683 2.01931
lowerneck -12.8474 -0.566595 -1.6516
upperneck 32.4329 -0.902731 1.62431
head 12.9756 -0.379051 0.789446
rclavicle -2.08724e-015 -2.78299e-015
rhumerus -56.3038 -27.0188 -48.7495
rradius 19.0062
rwrist 48.0472
rhand -16.8937 -22.6203
rfingers 7.12502
rthumb 9.33791 -52.3934
lclavicle -2.08724e-015 -2.78299e-015
lhumerus -43.2942 3.55717 74.3989
lradius 16.9375
lwrist 12.3369
lhand -30.3916 -8.94856
lfingers 7.12502
lthumb -3.69566 20.9991
rfemur -25.0049 -3.93071 19.0021
rtibia 37.0029
rfoot -19.1636 -2.3322
rtoes 6.03763
lfemur -24.4532 5.24278 -19.4197
ltibia 34.1186
lfoot -15.9173 7.96165
ltoes 1.97969
360
root 0.30345 17.2827 -6.74372 9.03477 1.3126 -0.893731
lowerback 5.13742 0.209081 -1.05413
upperback 5.69893 0.224144 1.38041
thorax 2.98553 0.0457824 2.0079
lowerneck -12.8271 -0.551264 -1.65436
upperneck 32.425 -0.875283 1.60907
head 12.9671 -0.369656 0.787908
rclavicle 4.27387e-015 -4.77083e-015
rhumerus -55.9567 -26.9284 -49.1796
rradius 19.0825
rwrist 47.8469
rhand -17.0938 -22.5848
rfingers 7.12502
rthumb 9.14488 -52.3665
lclavicle 4.27387e-015 -4.77083e-015
lhumerus -43.1036 3.63118 74.4063
lradius 16.9889
lwrist 12.3203
lhand -30.2024 -8.84524
lfingers 7.12502
lthumb -3.51293 21.1056
rfemur -24.9518 -3.92987 19.0091
rtibia 36.9527
rfoot -19.1784 -2.27717
rtoes 6.03903
lfemur -24.3868 5.23857 -19.4078
ltibia 34.0757
lfoot -15.9108 8.03297
ltoes 1.94893
361
root 0.300457 17.2842 -6.73569 9.03327 1.25603 -0.888205
lowerback 5.10393 0.205424 -1.06455
upperback 5.6915 0.219422 1.36427
thorax 2.99668 0.0433103 1.99728
lowerneck -12.7943 -0.53815 -1.6626
upperneck 32.408 -0.851905 1.60057
head 12.9524 -0.361875 0.789279
rclavicle 4.96962e-016 7.7526e-015
rhumerus -55.6217 -26.8567 -49.5862
rradius 19.1632
rwrist 47.6134
rhand -17.2713 -22.5721
rfingers 7.12502
rthumb 8.97357 -52.3613
lclavicle 4.96962e-016 7.7526e-015
lhumerus -42.9337 3.68841 74.4246
lradius 17.0505
lwrist 12.2741
lhand -30.0008 -8.71877
lfingers 7.12502
lthumb -3.31824 21.2351
rfemur -24.9014 -3.9235 19.011
rtibia 36.9054
rfoot -19.1933 -2.22665
rtoes 6.04552
lfemur -24.3207 5.23485 -19.4007
ltibia 34.032
lfoot -15.9043 8.10431
ltoes 1.92123
362
root 0.297397 17.2857 -6.7279 9.03208 1.19935 -0.883063
lowerback 5.07057 0.203418 -1.07385
upperback 5.68348 0.216956 1.34728
thorax 3.00705 0.0420344 1.98508
lowerneck -12.7585 -0.52669 -1.66591
upperneck 32.3892 -0.831661 1.59019
head 12.9363 -0.3551 0.788579
rclavicle 2.98177e-015 6.75868e-015
rhumerus -55.2926 -26.7744 -50.0042
rradius 19.2616
rwrist 47.3161
rhand -17.4189 -22.57
rfingers 7.12502
rthumb 8.83112 -52.3652
lclavicle 2.98177e-015 6.75868e-015
lhumerus -42.7829 3.73353 74.4487
lradius 17.1271
lwrist 12.2146
lhand -29.7923 -8.61629
lfingers 7.12502
lthumb -3.11692 21.3407
rfemur -24.8533 -3.90988 19.013
rtibia 36.8602
rfoot -19.2089 -2.18292
rtoes 6.06227
lfemur -24.2566 5.23315 -19.3933
ltibia 33.9884
lfoot -15.897 8.17508
ltoes 1.88562
363
root 0.294353 17.2871 -6.72028 9.03047 1.14248 -0.878492
lowerback 5.03604 0.202042 -1.08333
upperback 5.67657 0.215312 1.33142
thorax 3.0192 0.0411157 1.97416
lowerneck -12.7314 -0.515407 -1.66233
upperneck 32.3775 -0.811364 1.57335
head 12.925 -0.348262 0.784224
rclavicle -7.95139e-016 -3.18055e-015
rhumerus -54.9605 -26.6729 -50.4428
rradius 19.3807
rwrist 46.9435
rhand -17.5276 -22.585
rfingers 7.12502
rthumb 8.72624 -52.3846
lclavicle -7.95139e-016 -3.18055e-015
lhumerus -42.6442 3.78564 74.4718
lradius 17.2137
lwrist 12.1534
lhand -29.5802 -8.49581
lfingers 7.12502
lthumb -2.91206 21.4641
rfemur -24.8054 -3.89081 19.0152
rtibia 36.815
rfoot -19.2222 -2.14386
rtoes 6.08244
lfemur -24.1923 5.23337 -19.3853
ltibia 33.9445
lfoot -15.8891 8.24322
ltoes 1.85514
364
root 0.291379 17.2886 -6.71269 9.02801 1.08709 -0.875367
lowerback 4.998 0.200177 -1.09165
upperback 5.67254 0.213028 1.3175
thorax 3.03634 0.0398141 1.96462
lowerneck -12.7193 -0.502032 -1.65371
upperneck 32.3774 -0.787836 1.55207
head 12.9217 -0.339919 0.777828
rclavicle 3.18055e-015 1.03368e-014
rhumerus -54.6261 -26.561 -50.8906
rradius 19.5132
rwrist 46.5401
rhand -17.6073 -22.6113
rfingers 7.12502
rthumb 8.64928 -52.4141
lclavicle 3.18055e-015 1.03368e-014
lhumerus -42.5122 3.85827 74.487
lradius 17.3067
lwrist 12.0972
lhand -29.3631 -8.38081
lfingers 7.12502
lthumb -2.70242 21.5818
rfemur -24.7551 -3.86845 19.0181
rtibia 36.7671
rfoot -19.2348 -2.10675
rtoes 6.10838
lfemur -24.1273 5.23684 -19.3763
ltibia 33.8999
lfoot -15.8806 8.30885
ltoes 1.81583
365
root 0.288552 17.2902 -6.70507 9.0214 1.03417 -0.875436
lowerback 4.96006 0.197233 -1.09726
upperback 5.67231 0.209297 1.30733
thorax 3.05746 0.0377465 1.95748
lowerneck -12.726 -0.484611 -1.63708
upperneck 32.3929 -0.757005 1.52029
head 12.9288 -0.328707 0.767144
rclavicle 1.98785e-016 -5.36719e-015
rhumerus -54.2889 -26.4389 -51.3435
rradius 19.6576
rwrist 46.1182
rhand -17.653 -22.636
rfingers 7.12502
rthumb 8.60523 -52.4407
lclavicle 1.98785e-016 -5.36719e-015
lhumerus -42.3799 3.96618 74.4887
lradius 17.3948
lwrist 12.0419
lhand -29.1474 -8.27197
lfingers 7.12502
lthumb -2.49409 21.6932
rfemur -24.698 -3.84547 19.0242
rtibia 36.7148
rfoot -19.246 -2.07462
rtoes 6.11174
lfemur -24.0566 5.24127 -19.3638
ltibia 33.8538
lfoot -15.8737 8.3722
ltoes 1.78122
366
root 0.285874 17.2918 -6.69745 9.01098 0.981461 -0.879522
lowerback 4.92341 0.194579 -1.0986
upperback 5.67496 0.205991 1.29982
thorax 3.08084 0.0359477 1.95069
lowerneck -12.7445 -0.464446 -1.61678
upperneck 32.418 -0.722401 1.48644
head 12.9425 -0.315634 0.755637
rclavicle -3.97569e-016 3.37934e-015
rhumerus -53.954 -26.3095 -51.7984
rradius 19.8125
rwrist 45.6917
rhand -17.6834 -22.6493
rfingers 7.12502
rthumb 8.57586 -52.4552
lclavicle -3.97569e-016 3.37934e-015
lhumerus -42.2474 4.09633 74.483
lradius 17.4825
lwrist 12.0087
lhand -28.9416 -8.13877
lfingers 7.12502
lthumb -2.29528 21.8286
rfemur -24.6346 -3.82037 19.0339
rtibia 36.6576
rfoot -19.2555 -2.04594
rtoes 6.09558
lfemur -23.9809 5.24836 -19.3469
ltibia 33.8064
lfoot -15.8693 8.43261
ltoes 1.7547
367
root 0.283352 17.2934 -6.6899 8.99659 0.928095 -0.88499
lowerback 4.8892 0.193222 -1.09719
upperback 5.67985 0.204435 1.29328
thorax 3.10513 0.0350782 1.94333
lowerneck -12.7702 -0.442032 -1.59715
upperneck 32.45 -0.685962 1.45771
head 12.9606 -0.301159 0.746561
rclavicle -3.47873e-015 -5.36719e-015
rhumerus -53.6253 -26.1868 -52.2434
rradius 19.9707
rwrist 45.2781
rhand -17.7046 -22.6509
rfingers 7.12502
rthumb 8.55541 -52.4576
lclavicle -3.47873e-015 -5.36719e-015
lhumerus -42.1111 4.23482 74.4775
lradius 17.5684
lwrist 12.0142
lhand -28.7544 -7.99366
lfingers 7.12502
lthumb -2.11453 21.9756
rfemur -24.566 -3.79355 19.0442
rtibia 36.5971
rfoot -19.2636 -2.01966
rtoes 6.0631
lfemur -23.9003 5.25768 -19.3291
ltibia 33.7583
lfoot -15.8687 8.4917
ltoes 1.7322
368
root 0.281004 17.2949 -6.68255 8.98067 0.875419 -0.891725
lowerback 4.8597 0.19301 -1.09153
upperback 5.68222 0.204491 1.28673
thorax 3.12409 0.0352357 1.9335
lowerneck -12.7808 -0.419862 -1.58529
upperneck 32.4755 -0.652335 1.44239
head 12.9729 -0.287157 0.743596
rclavicle 2.5842e-015 0
rhumerus -53.3101 -26.0814 -52.6638
rradius 20.1237
rwrist 44.8961
rhand -17.716 -22.6357
rfingers 7.12502
rthumb 8.54445 -52.4428
lclavicle 2.5842e-015 0
lhumerus -41.9802 4.36661 74.4792
lradius 17.662
lwrist 12.0749
lhand -28.5935 -7.82945
lfingers 7.12502
lthumb -1.95912 22.1413
rfemur -24.4961 -3.76648 19.0553
rtibia 36.536
rfoot -19.2707 -1.99727
rtoes 6.00971
lfemur -23.8192 5.26838 -19.3108
ltibia 33.711
lfoot -15.8703 8.54945
ltoes 1.7098
